<?xml version="1.0" standalone="no"?><!DOCTYPE svg PUBLIC "-//W3C//DTD SVG 1.1//EN" "http://www.w3.org/Graphics/SVG/1.1/DTD/svg11.dtd"><svg t="1686730459290" class="icon" viewBox="0 0 1820 1024" version="1.1" xmlns="http://www.w3.org/2000/svg" p-id="4006" xmlns:xlink="http://www.w3.org/1999/xlink" width="355.46875" height="200"><path d="M1534.862222 102.4h-47.786666c-13.653333 0-25.031111-11.150222-25.031112-25.031111 0-13.653333 11.377778-25.031111 25.031112-25.031111h47.786666c13.653333 0 25.031111 11.150222 25.031111 25.031111s-11.377778 25.031111-25.031111 25.031111z" fill="#4C4C4C" p-id="4007"></path><path d="M1214.008889 70.542222h252.586667v13.653334h-252.586667zM1557.617778 70.542222h252.586666v13.653334h-252.586666z" fill="#393939" p-id="4008"></path><path d="M285.582222 102.4h47.786667c13.880889 0 25.031111-11.150222 25.031111-25.031111 0-13.653333-11.150222-25.031111-25.031111-25.031111h-47.786667c-13.880889 0-25.031111 11.150222-25.031111 25.031111s11.150222 25.031111 25.031111 25.031111z" fill="#4C4C4C" p-id="4009"></path><path d="M356.124444 70.542222h252.586667v13.653334h-252.586667z" fill="#393939" p-id="4010"></path><path d="M10.24 70.542222h252.586667v13.653334H10.24z" fill="#4C4C4C" p-id="4011"></path><path d="M972.344889 657.635556h-124.017778c-19.114667 0-34.816-15.473778-34.816-34.816v-174.08c0-19.114667 15.473778-34.816 34.816-34.816h124.017778c19.114667 0 34.816 15.473778 34.816 34.816v174.08c-0.227556 19.342222-15.701333 34.816-34.816 34.816z" fill="#676767" p-id="4012"></path><path d="M1006.933333 486.968889h200.248889v34.133333h-200.248889z" fill="#4C4C4C" p-id="4013"></path><path d="M1034.24 521.102222h77.368889v93.297778h-77.368889z" fill="#2F2F2F" p-id="4014"></path><path d="M1131.633778 744.106667h-92.615111c-17.749333 0-32.312889-14.336-32.312889-32.312889v-49.379556c0-17.749333 14.336-32.312889 32.312889-32.312889h92.615111c17.749333 0 32.312889 14.336 32.312889 32.312889v49.379556c0 17.976889-14.336 32.312889-32.312889 32.312889z" fill="#4C4C4C" p-id="4015"></path><path d="M1054.72 614.4h31.857778v15.928889h-31.857778zM613.262222 484.693333h200.248889v34.133334h-200.248889z" fill="#4C4C4C" p-id="4016"></path><path d="M704.284444 518.826667h77.368889v93.297777h-77.368889z" fill="#2F2F2F" p-id="4017"></path><path d="M799.402667 791.893333h-88.064c-14.108444 0-25.486222-11.377778-25.486223-25.486222v-72.135111c0-14.108444 11.377778-25.486222 25.486223-25.486222h88.064c14.108444 0 25.486222 11.377778 25.486222 25.486222v72.135111c0 14.108444-11.377778 25.486222-25.486222 25.486222z" fill="#4C4C4C" p-id="4018"></path><path d="M727.04 612.124444h36.408889v56.888889h-36.408889zM1096.362667 348.355698l31.218346-11.361849 221.7984 609.425635-31.220622 11.361849z" fill="#4C4C4C" p-id="4019"></path><path d="M1330.062222 939.804444m-38.684444 0a38.684444 38.684444 0 1 0 77.368889 0 38.684444 38.684444 0 1 0-77.368889 0Z" fill="#4C4C4C" p-id="4020"></path><path d="M471.144676 946.62656l221.7984-609.427911 31.220622 11.361849-221.7984 609.427911z" fill="#4C4C4C" p-id="4021"></path><path d="M490.382222 939.804444m-38.684444 0a38.684444 38.684444 0 1 0 77.368889 0 38.684444 38.684444 0 1 0-77.368889 0Z" fill="#4B4B4B" p-id="4022"></path><path d="M755.484444 729.315556m-48.924444 0a48.924444 48.924444 0 1 0 97.848889 0 48.924444 48.924444 0 1 0-97.848889 0Z" fill="#374F5A" p-id="4023"></path><path d="M1045.617778 687.217778m-22.755556 0a22.755556 22.755556 0 1 0 45.511111 0 22.755556 22.755556 0 1 0-45.511111 0Z" fill="#202422" p-id="4024"></path><path d="M756.622222 730.453333m-34.133333 0a34.133333 34.133333 0 1 0 68.266667 0 34.133333 34.133333 0 1 0-68.266667 0Z" fill="#2B302E" p-id="4025"></path><path d="M1116.16 687.217778m-31.857778 0a31.857778 31.857778 0 1 0 63.715556 0 31.857778 31.857778 0 1 0-63.715556 0Z" fill="#1F2221" p-id="4026"></path><path d="M1546.24 234.382222h-70.542222c-15.018667 0-27.306667-12.288-27.306667-27.306666V122.88c0-15.018667 12.288-27.306667 27.306667-27.306667h70.542222c15.018667 0 27.306667 12.288 27.306667 27.306667v84.195556c0 15.018667-12.288 27.306667-27.306667 27.306666zM274.204444 234.382222h70.542223c15.018667 0 27.306667-12.288 27.306666-27.306666V122.88c0-15.018667-12.288-27.306667-27.306666-27.306667h-70.542223c-15.018667 0-27.306667 12.288-27.306666 27.306667v84.195556c0 15.018667 12.288 27.306667 27.306666 27.306666z" fill="#626262" p-id="4027"></path><path d="M1082.763947 295.565084l492.3392-86.839751 10.672355 60.507023-492.3392 86.837475zM234.650738 269.1072l10.672355-60.507022 492.3392 86.837475-10.672355 60.507023z" fill="#656565" p-id="4028"></path><path d="M1077.020444 414.151111H743.651556c-11.605333 0-21.162667-9.329778-21.162667-21.162667v-126.293333c0-11.605333 9.329778-21.162667 21.162667-21.162667h333.368888c11.605333 0 21.162667 9.329778 21.162667 21.162667v126.293333c-0.227556 11.832889-9.557333 21.162667-21.162667 21.162667z" fill="#4C4C4C" p-id="4029"></path></svg>